<svg xmlns="http://www.w3.org/2000/svg" viewBox="0 0 59.12 67.84"><defs><style>.cls-1{fill:#3a3534;}.cls-2{fill:#0083bd;}</style></defs><title>Asset 69</title><g id="Layer_2" data-name="Layer 2"><g id="Layer_1-2" data-name="Layer 1"><path class="cls-1" d="M4.66,0H8.12L9,10.45h0L10.2,0h3.4L11.1,14.71H6.9Z"/><path class="cls-1" d="M14.6,0H18V14.71H14.6Z"/><path class="cls-1" d="M19,0h3.46l.92,10.45h0L24.52,0h3.4l-2.5,14.71h-4.2Z"/><path class="cls-1" d="M28.8,0h7.53V2.83H32.19V5.76h3.63V8.6H32.19v3.27H36.5v2.84H28.8Z"/><path class="cls-1" d="M7.88,27.35v1.09C7.88,29.23,8.06,30,9,30a1.08,1.08,0,0,0,1.18-1.14c0-1.29-1.34-2.15-2.69-3.13s-2.72-1.93-2.72-4.17c0-2.89,1.62-4.13,4.32-4.13,3,0,4.24,1.44,4.24,3.7v1.33H10.18v-.79c0-.74-.11-1.62-1.07-1.62A1.05,1.05,0,0,0,8,21.11C8,22,9.39,23,10.77,24s2.82,1.82,2.82,4.78c0,1.42-1.07,3.76-4.61,3.76-3.35,0-4.38-2.12-4.38-3.65V27.35Z"/><path class="cls-1" d="M17.06,17.63h4.49l2.77,14.71H20.76l-.31-2.61H18.08l-.35,2.61H14.34Zm1.37,9.48h1.69l-.79-7.19h0Z"/><path class="cls-1" d="M25.2,17.63h3.7l2.72,8.67h0V17.63h3.27V32.34H31.25l-2.74-9.09h0v9.09H25.2Z"/><path class="cls-1" d="M4.66,35.27H9.13c3,0,4.29.9,4.29,3.55,0,1.73-.24,2.85-2.05,3.4v0a2.29,2.29,0,0,1,2,2.34v2.59c0,1,0,2.3.35,2.78H10.34A5.91,5.91,0,0,1,10,47.19V44.84c0-.85-.33-1.22-1.29-1.22H8V50H4.66ZM8,41.12h.83c1.16,0,1.16-.77,1.16-1.73s0-1.62-1.32-1.62H8Z"/><path class="cls-1" d="M17,35.27h4.49L24.24,50H20.69l-.32-2.61H18L17.65,50H14.26Zm1.36,9.47H20l-.79-7.19h0Z"/><path class="cls-1" d="M25.12,35.27h7.07V38.1H28.51V41H31.8v2.83H28.51V50H25.12Z"/><path class="cls-1" d="M34.71,35.27H39.2L42,50H38.41l-.31-2.61H35.72L35.37,50H32Zm1.36,9.47h1.7L37,37.55h0Z"/><path class="cls-1" d="M42.85,35.27h7.52V38.1H46.23V41h3.63v2.83H46.23v3.28h4.31V50H42.85Z"/><path class="cls-1" d="M52.05,35.27h3.39V47.14h3.68V50H52.05Z"/><path class="cls-2" d="M0,67.6V64.22H3.06V67.6Z"/><path class="cls-2" d="M4.58,56.91c0-2.87,1.84-4.25,4.36-4.25s4.37,1.38,4.37,4.25v1.36H9.92V56.62c0-.5,0-1.35-1-1.35s-1,.85-1,1.35v7.27c0,.38,0,1.34,1,1.34s1-1,1-1.34V61.73h3.39v1.86a4,4,0,0,1-4.37,4.25,4,4,0,0,1-4.36-4.25Z"/><path class="cls-2" d="M14.82,56.91c0-2.87,1.84-4.25,4.36-4.25s4.36,1.38,4.36,4.25v6.68a4,4,0,0,1-4.36,4.25,4,4,0,0,1-4.36-4.25Zm3.38,7c0,.38,0,1.34,1,1.34s1-1,1-1.34V56.62c0-.5,0-1.35-1-1.35s-1,.85-1,1.35Z"/><path class="cls-2" d="M25.14,52.9h5.34l1,7.29h0l1-7.29h5.34V67.6H34.49V56.17h0L32.56,67.6H30.35l-1.9-11.43h0V67.6H25.14Z"/></g></g></svg>